<svg width="52" height="56" viewBox="0 0 52 56" fill="none" xmlns="http://www.w3.org/2000/svg">
<rect x="0.630859" y="0.737793" width="31.7205" height="54.4764" rx="5" fill="#155AEB"/>
<g filter="url(#filter0_f_259_72)">
<circle cx="30.8375" cy="34.4034" r="16.5309" fill="url(#paint0_linear_259_72)"/>
</g>
<path d="M24.036 26.3111C23.916 26.3095 23.7995 26.2707 23.7027 26.2C23.6058 26.1292 23.5334 26.03 23.4955 25.9162C23.4575 25.8024 23.456 25.6797 23.491 25.5649C23.526 25.4502 23.5959 25.3493 23.691 25.2761C25.7604 23.812 28.2525 23.0665 30.786 23.1536C32.781 23.1536 35.646 23.4911 37.911 25.1186C38.0348 25.2074 38.1185 25.3417 38.1438 25.492C38.1691 25.6423 38.1339 25.7966 38.046 25.9211C37.9546 26.0443 37.8185 26.1266 37.667 26.1505C37.5155 26.1743 37.3607 26.1377 37.236 26.0486C35.3126 24.8262 33.0633 24.2168 30.786 24.3011C28.5123 24.2238 26.2751 24.8871 24.411 26.1911C24.3048 26.2756 24.1714 26.3182 24.036 26.3111Z" fill="#5900FF"/>
<path d="M39.9585 31.5985C39.8658 31.5976 39.7746 31.5748 39.6924 31.5317C39.6102 31.4887 39.5395 31.4267 39.486 31.351C38.1885 29.521 35.871 27.0835 30.786 27.0835C29.0953 27.0409 27.4193 27.4074 25.9007 28.1517C24.382 28.896 23.0656 29.9961 22.0635 31.3585C21.9735 31.4812 21.8387 31.5634 21.6885 31.5872C21.5382 31.6111 21.3846 31.5747 21.261 31.486C21.1962 31.4409 21.1414 31.3828 21.1002 31.3154C21.059 31.248 21.0323 31.1727 21.0217 31.0945C21.0112 31.0162 21.017 30.9366 21.0388 30.8607C21.0606 30.7847 21.098 30.7142 21.1485 30.6535C22.2595 29.1526 23.7149 27.9407 25.3921 27.1197C27.0693 26.2987 28.9192 25.8928 30.786 25.936C34.9935 25.936 38.1435 27.496 40.416 30.691C40.5032 30.8164 40.5372 30.9713 40.5105 31.1217C40.4838 31.2721 40.3986 31.4058 40.2735 31.4935C40.1807 31.5578 40.0714 31.5942 39.9585 31.5985Z" fill="#5900FF"/>
<path d="M27.9965 45.6536C27.8801 45.653 27.7666 45.6177 27.6704 45.5522C27.5742 45.4868 27.4998 45.3941 27.4565 45.2861C27.4265 45.2155 27.4113 45.1394 27.4118 45.0627C27.4123 44.9859 27.4285 44.9101 27.4594 44.8398C27.4903 44.7695 27.5353 44.7064 27.5915 44.6541C27.6478 44.6019 27.7141 44.5617 27.7865 44.5361C31.064 43.2761 33.0365 40.6961 33.0365 37.6286C33.0589 37.3274 33.0161 37.0249 32.9109 36.7418C32.8058 36.4586 32.6408 36.2015 32.4272 35.9879C32.2136 35.7743 31.9565 35.6093 31.6733 35.5042C31.3902 35.399 31.0877 35.3562 30.7865 35.3786C29.3915 35.3786 28.7165 36.1286 28.5365 37.8911C28.4528 38.7155 28.0529 39.4753 27.4207 40.0109C26.7885 40.5466 25.9734 40.8164 25.1465 40.7636C24.7018 40.7701 24.2607 40.6838 23.8511 40.5104C23.4416 40.337 23.0727 40.0802 22.7679 39.7563C22.4631 39.4325 22.2291 39.0487 22.0808 38.6294C21.9325 38.2102 21.8731 37.7646 21.9065 37.3211C21.9479 35.0023 22.9049 32.794 24.5685 31.1781C26.2322 29.5622 28.4674 28.67 30.7865 28.6961C33.1644 28.6961 35.4456 29.6371 37.132 31.3136C38.8183 32.9901 39.7726 35.2658 39.7865 37.6436C39.7335 39.3179 39.3804 40.9691 38.744 42.5186C38.6829 42.6568 38.5707 42.766 38.4309 42.8233C38.2911 42.8806 38.1345 42.8816 37.994 42.8261C37.9243 42.7974 37.861 42.7551 37.8077 42.7018C37.7544 42.6484 37.7123 42.5851 37.6837 42.5153C37.6551 42.4455 37.6406 42.3708 37.6411 42.2954C37.6416 42.22 37.657 42.1455 37.6865 42.0761C38.2624 40.6662 38.5849 39.1657 38.639 37.6436C38.6291 35.5689 37.7969 33.5827 36.3249 32.1206C34.8529 30.6584 32.8612 29.8396 30.7865 29.8436C29.7826 29.8237 28.7846 30.0021 27.8497 30.3684C26.9147 30.7348 26.0613 31.282 25.3381 31.9786C24.615 32.6753 24.0364 33.5078 23.6354 34.4284C23.2345 35.349 23.0191 36.3396 23.0015 37.3436C22.9708 37.6354 23.0022 37.9304 23.0937 38.2092C23.1852 38.488 23.3347 38.7442 23.5324 38.961C23.7301 39.1778 23.9714 39.3503 24.2406 39.4671C24.5098 39.5839 24.8006 39.6423 25.094 39.6386C25.3641 39.6655 25.6368 39.6386 25.8965 39.5594C26.1561 39.4803 26.3975 39.3505 26.6067 39.1776C26.8159 39.0046 26.9887 38.792 27.1153 38.5519C27.2418 38.3117 27.3196 38.0489 27.344 37.7786C27.614 35.4461 28.7615 34.2611 30.764 34.2611C31.2178 34.2382 31.6713 34.3112 32.095 34.4753C32.5187 34.6395 32.9031 34.8911 33.2229 35.2139C33.5428 35.5366 33.7911 35.9231 33.9515 36.3482C34.1119 36.7734 34.1809 37.2275 34.154 37.6811C34.154 41.2361 31.904 44.2211 28.154 45.6536C28.1017 45.6596 28.0488 45.6596 27.9965 45.6536Z" fill="#5900FF"/>
<path d="M33.6133 45.1136C33.4696 45.1113 33.3315 45.0582 33.2233 44.9636C33.1698 44.9106 33.1273 44.8475 33.0983 44.778C33.0693 44.7085 33.0544 44.6339 33.0544 44.5586C33.0544 44.4833 33.0693 44.4087 33.0983 44.3392C33.1273 44.2697 33.1698 44.2066 33.2233 44.1536C34.9106 42.4046 35.8612 40.0739 35.8783 37.6436C35.8783 36.4736 35.5183 32.6561 30.8533 32.6561C30.1735 32.6322 29.4958 32.7439 28.8597 32.9847C28.2236 33.2255 27.6418 33.5906 27.1483 34.0586C26.7067 34.4955 26.3576 35.0168 26.1218 35.5915C25.886 36.1662 25.7683 36.7825 25.7758 37.4036C25.7738 37.5555 25.7121 37.7005 25.604 37.8071C25.4959 37.9138 25.3502 37.9736 25.1983 37.9736C25.1228 37.9746 25.0479 37.9606 24.9779 37.9324C24.9078 37.9042 24.8441 37.8624 24.7904 37.8093C24.7367 37.7563 24.694 37.6931 24.6649 37.6235C24.6358 37.5538 24.6208 37.4791 24.6208 37.4036C24.6091 36.6353 24.7503 35.8723 25.0361 35.159C25.322 34.4456 25.7467 33.7963 26.2858 33.2486C26.8833 32.6751 27.5888 32.226 28.3613 31.9273C29.1338 31.6286 29.9579 31.4863 30.7858 31.5086C35.3458 31.5086 36.9658 34.8086 36.9658 37.6436C36.956 40.3488 35.9091 42.9472 34.0408 44.9036C33.9892 44.9678 33.9242 45.0198 33.8504 45.0561C33.7765 45.0924 33.6956 45.112 33.6133 45.1136Z" fill="#5900FF"/>
<path d="M25.2814 43.2086C24.8904 43.2077 24.4998 43.1852 24.1114 43.1411C24.0365 43.1328 23.964 43.1097 23.8981 43.0733C23.8321 43.037 23.774 42.988 23.727 42.9291C23.68 42.8703 23.645 42.8027 23.6241 42.7304C23.6032 42.658 23.5967 42.5822 23.6051 42.5074C23.6135 42.4325 23.6365 42.3601 23.6729 42.2941C23.7093 42.2282 23.7583 42.17 23.8171 42.123C23.876 42.076 23.9435 42.041 24.0159 42.0201C24.0882 41.9992 24.164 41.9928 24.2389 42.0011C26.1064 42.2111 27.5764 41.8811 28.6189 41.0111C29.0994 40.5814 29.488 40.0588 29.7613 39.475C30.0345 38.8911 30.1868 38.2579 30.2089 37.6136C30.2126 37.5377 30.2317 37.4633 30.2649 37.3949C30.2982 37.3265 30.345 37.2656 30.4025 37.2159C30.46 37.1661 30.527 37.1285 30.5994 37.1053C30.6718 37.0822 30.7482 37.0739 30.8239 37.0811C30.9751 37.0927 31.1159 37.1625 31.2166 37.2758C31.3173 37.3891 31.3701 37.5371 31.3639 37.6886C31.3323 38.4908 31.1378 39.2782 30.7922 40.0028C30.4467 40.7274 29.9573 41.3741 29.3539 41.9036C28.1962 42.8118 26.7513 43.2748 25.2814 43.2086Z" fill="#5900FF"/>
<defs>
<filter id="filter0_f_259_72" x="10.3066" y="13.8726" width="41.0615" height="41.0618" filterUnits="userSpaceOnUse" color-interpolation-filters="sRGB">
<feFlood flood-opacity="0" result="BackgroundImageFix"/>
<feBlend mode="normal" in="SourceGraphic" in2="BackgroundImageFix" result="shape"/>
<feGaussianBlur stdDeviation="2" result="effect1_foregroundBlur_259_72"/>
</filter>
<linearGradient id="paint0_linear_259_72" x1="30.8375" y1="17.8726" x2="30.8375" y2="50.9343" gradientUnits="userSpaceOnUse">
<stop stop-color="white"/>
<stop offset="1" stop-color="white" stop-opacity="0"/>
</linearGradient>
</defs>
</svg>
