<svg width="252" height="37" viewBox="0 0 252 37" fill="none" xmlns="http://www.w3.org/2000/svg">
<g clip-path="url(#clip0_259_11)">
<path d="M172.818 35.051C169.746 35.051 166.818 33.8942 164.577 31.7968L166.229 30.0256C168.022 31.7035 170.36 32.6231 172.818 32.6231C178.14 32.6231 182.466 28.2968 182.466 22.9747C182.466 18.3857 179.204 14.4027 174.712 13.5129C174.632 13.4959 174.555 13.4832 174.474 13.4705C174.364 13.4493 174.246 13.4324 174.131 13.4154L171.755 13.0934L178.301 6.3561H169.644V3.93237H184.03L176.653 11.5298C181.508 13.1527 184.894 17.7502 184.894 22.979C184.89 29.64 179.475 35.051 172.818 35.051Z" fill="#006DB7"/>
<path d="M202.381 16.6653V19.7712H201.673V17.25H200.61L200.589 17.8983C200.551 19.1187 200.376 19.8179 199.648 19.8179C199.542 19.8179 199.428 19.8009 199.292 19.767L199.335 19.161C199.376 19.1737 199.419 19.178 199.462 19.178C199.826 19.178 199.919 18.7161 199.949 17.9237L199.991 16.6653H202.381Z" fill="#006DB7"/>
<path d="M205.609 19.195V19.7712H203.207V16.6653H205.554V17.2416H203.923V17.9153H205.364V18.4746H203.923V19.195H205.609Z" fill="#006DB7"/>
<path d="M208.615 17.2544H207.623V19.7756H206.915V17.2544H205.928V16.6697H208.618V17.2544H208.615Z" fill="#006DB7"/>
<path d="M218.941 18.8053V20.585H217.882V19.7375H215.123V20.585H214.064V18.8053H214.225C214.768 18.7926 214.861 18.0256 214.903 17.1697L214.954 15.8096H218.378V18.8011H218.941V18.8053ZM215.581 18.8053H217.238V16.746H215.954L215.933 17.2502C215.911 17.9155 215.861 18.513 215.581 18.8053Z" fill="#006DB7"/>
<path d="M223.453 18.0976H220.483C220.593 18.5849 221.008 18.8857 221.605 18.8857C222.021 18.8857 222.322 18.7629 222.593 18.5044L223.199 19.1612C222.835 19.5764 222.288 19.7968 221.58 19.7968C220.224 19.7968 219.339 18.9408 219.339 17.7756C219.339 16.6019 220.237 15.7544 221.432 15.7544C222.585 15.7544 223.474 16.5299 223.474 17.7926C223.474 17.8773 223.462 18.0044 223.453 18.0976ZM220.466 17.4324H222.403C222.322 16.9366 221.949 16.6146 221.441 16.6146C220.919 16.6146 220.547 16.9281 220.466 17.4324Z" fill="#006DB7"/>
<path d="M224.352 15.8137H225.483V18.1484L227.394 15.8137H228.437V19.7416H227.306V17.4069L225.398 19.7416H224.348V15.8137H224.352ZM225.034 14.2585H225.78C225.788 14.5933 225.962 14.7967 226.323 14.7967C226.674 14.7967 226.869 14.5933 226.869 14.2585H227.627C227.619 15.017 227.182 15.3899 226.326 15.3899C225.47 15.3899 225.038 15.017 225.034 14.2585Z" fill="#006DB7"/>
<path d="M229.217 17.7756C229.217 16.5934 230.128 15.7544 231.408 15.7544C232.233 15.7544 232.882 16.1104 233.166 16.7544L232.284 17.229C232.073 16.8561 231.759 16.6866 231.403 16.6866C230.826 16.6866 230.373 17.0892 230.373 17.7756C230.373 18.462 230.826 18.8646 231.403 18.8646C231.759 18.8646 232.073 18.7035 232.284 18.3264L233.166 18.8095C232.882 19.4366 232.229 19.801 231.408 19.801C230.128 19.801 229.217 18.9578 229.217 17.7756Z" fill="#006DB7"/>
<path d="M237.144 16.746H235.813V19.7375H234.682V16.746H233.352V15.8096H237.14V16.746H237.144Z" fill="#006DB7"/>
<path d="M241.445 18.623C241.445 19.318 240.928 19.7417 239.847 19.7417H237.754V15.8137H239.763C240.75 15.8137 241.33 16.1867 241.33 16.8264C241.33 17.2205 241.119 17.5214 240.754 17.6866C241.211 17.8434 241.445 18.157 241.445 18.623ZM238.796 17.4281H239.657C240.051 17.4281 240.254 17.2841 240.254 17.0044C240.254 16.7206 240.051 16.5892 239.657 16.5892H238.796V17.4281ZM240.381 18.5341C240.381 18.2332 240.19 18.0977 239.775 18.0977H238.796V18.9663H239.754C240.17 18.9663 240.381 18.8265 240.381 18.5341Z" fill="#006DB7"/>
<path d="M246.229 15.8137L244.453 19.9833C244.072 20.9324 243.534 21.2163 242.827 21.2163C242.424 21.2163 241.988 21.0849 241.733 20.8603L242.149 20.0511C242.322 20.2036 242.564 20.301 242.793 20.301C243.106 20.301 243.28 20.1612 243.436 19.8138L243.449 19.7756L241.75 15.818H242.924L244.026 18.4832L245.136 15.818H246.229V15.8137Z" fill="#006DB7"/>
<path d="M246.78 15.8137H247.911V18.1484L249.822 15.8137H250.865V19.7416H249.733V17.4069L247.826 19.7416H246.775V15.8137H246.78ZM247.458 14.2585H248.204C248.212 14.5933 248.386 14.7967 248.746 14.7967C249.098 14.7967 249.292 14.5933 249.292 14.2585H250.051C250.043 15.017 249.606 15.3899 248.75 15.3899C247.894 15.3899 247.466 15.017 247.458 14.2585Z" fill="#006DB7"/>
<path d="M215.094 23.7331H214.623V24.6908H214.212V22.4238H214.623V23.3814H215.102L215.835 22.4238H216.276L215.415 23.5128L216.335 24.6865H215.852L215.094 23.7331Z" fill="#006DB7"/>
<path d="M218.505 23.3222V24.6908H218.115V24.39C217.979 24.5934 217.724 24.7162 217.373 24.7162C216.86 24.7162 216.534 24.4408 216.534 24.051C216.534 23.6866 216.767 23.39 217.445 23.39H218.093V23.3053C218.093 22.9578 217.894 22.7587 217.487 22.7587C217.22 22.7587 216.945 22.8519 216.771 23.0002L216.602 22.6908C216.835 22.5044 217.174 22.3984 217.539 22.3984C218.153 22.4027 218.505 22.7036 218.505 23.3222ZM218.093 23.996V23.6781H217.462C217.055 23.6781 216.94 23.8349 216.94 24.0298C216.94 24.2586 217.127 24.3985 217.441 24.3985C217.746 24.3985 217.992 24.2586 218.093 23.996Z" fill="#006DB7"/>
<path d="M221.301 23.7333H220.86V24.6909H220.449V23.7333H220.009L219.386 24.6909H218.898L219.678 23.5214L218.962 22.4282H219.399L220.009 23.3858H220.454V22.4282H220.864V23.3858H221.31L221.92 22.4282H222.36L221.644 23.5256L222.424 24.6909H221.936L221.301 23.7333Z" fill="#006DB7"/>
<path d="M225.174 24.3306V25.2162H224.788V24.6908H222.894V25.2162H222.504V24.3306H222.623C222.949 24.3137 223.004 23.7628 223.034 23.1908L223.067 22.4238H224.826V24.3306H225.174ZM223.148 24.3306H224.419V22.784H223.436L223.415 23.2205C223.394 23.6908 223.352 24.1526 223.148 24.3306Z" fill="#006DB7"/>
<path d="M227.606 23.9324C227.606 24.4239 227.263 24.6994 226.657 24.6908L225.704 24.6866V22.4197H226.115V23.1866L226.725 23.1909C227.301 23.1993 227.606 23.4662 227.606 23.9324ZM227.191 23.9282C227.191 23.6273 227 23.5002 226.628 23.4959L226.115 23.4875V24.3773L226.628 24.3815C226.996 24.3858 227.191 24.2332 227.191 23.9282ZM227.945 22.4239H228.356V24.6908H227.945V22.4239Z" fill="#006DB7"/>
<path d="M229.152 22.4239H229.564V24.0722L230.953 22.4239H231.326V24.6908H230.915V23.0425L229.529 24.6908H229.152V22.4239ZM229.542 21.5383H229.822C229.826 21.7502 229.979 21.89 230.212 21.89C230.445 21.89 230.602 21.7544 230.606 21.5383H230.89C230.881 21.9239 230.627 22.1273 230.216 22.1273C229.797 22.1315 229.546 21.9239 229.542 21.5383Z" fill="#006DB7"/>
<path d="M235.572 24.3306V25.2162H235.187V24.6908H233.292V25.2162H232.902V24.3306H233.021C233.348 24.3137 233.403 23.7628 233.432 23.1908L233.466 22.4238H235.225V24.3306H235.572ZM233.542 24.3306H234.813V22.784H233.83L233.81 23.2205C233.792 23.6908 233.75 24.1526 233.542 24.3306Z" fill="#006DB7"/>
<path d="M238.14 23.6951H236.302C236.352 24.0934 236.674 24.3561 237.124 24.3561C237.39 24.3561 237.611 24.2671 237.776 24.0807L238.005 24.3476C237.802 24.5849 237.488 24.7163 237.111 24.7163C236.382 24.7163 235.895 24.2332 235.895 23.5595C235.895 22.89 236.378 22.407 237.03 22.407C237.683 22.407 238.149 22.8773 238.149 23.5722C238.149 23.6061 238.145 23.6569 238.14 23.6951ZM236.306 23.3985H237.759C237.717 23.0171 237.429 22.7502 237.035 22.7502C236.637 22.7502 236.348 23.0129 236.306 23.3985Z" fill="#006DB7"/>
<path d="M238.783 22.4238H239.195V23.3857H240.487V22.4238H240.898V24.6908H240.487V23.7416H239.195V24.6908H238.783V22.4238Z" fill="#006DB7"/>
<path d="M243.628 23.9324C243.628 24.4239 243.284 24.6994 242.678 24.6908L241.695 24.6866V22.4197H242.106V23.1866L242.742 23.1909C243.318 23.1993 243.628 23.4662 243.628 23.9324ZM243.208 23.9282C243.208 23.6273 243.021 23.5002 242.645 23.4959L242.106 23.4875V24.3773L242.645 24.3815C243.017 24.3858 243.208 24.2332 243.208 23.9282Z" fill="#006DB7"/>
<path d="M30.479 17.6443H37.0256V23.6824L40.6485 17.6443H47.8265L42.2629 25.5976L47.9875 34.4154H40.462L37.0256 28.0426V34.4154H30.479V17.6443Z" fill="#006DB7"/>
<path d="M28.8263 33.89C27.8009 34.4409 26.3984 34.9197 24.4323 34.9197C19.1018 34.9197 15.3179 31.3985 15.3179 26.0298C15.3179 19.9451 20.178 17.1443 24.339 17.1443C25.6696 17.1443 27.517 17.479 28.8263 18.4112V24.2799C27.8221 23.0129 26.3517 22.5045 25.2035 22.5045C22.7713 22.5045 21.606 24.1569 21.606 26.1951C21.606 28.3265 23.123 29.5468 25.1822 29.5468C26.6314 29.5468 27.8941 28.8773 28.8263 28.0129V33.89Z" fill="#006DB7"/>
<path d="M6.54237 30.2841V27.7672H7.33475C7.96614 27.7672 8.97458 27.8858 8.97458 29.0129C8.97458 30.1867 7.94064 30.2841 7.33475 30.2841H6.54237ZM0 17.5383V34.3096H9.67371C14.2118 34.3096 15.1949 31.335 15.1949 29.6358C15.1949 27.3604 13.6738 25.7078 11.5678 25.3477V25.3011C12.9237 24.8943 14.4195 23.6951 14.4195 21.8053C14.4195 20.5087 13.928 17.5383 9.22878 17.5383H0ZM6.54237 23.9112V21.5638H7.15255C8.2966 21.5638 8.60172 22.1655 8.60172 22.7375C8.60172 23.3096 8.2966 23.9112 7.15255 23.9112H6.54237Z" fill="#006DB7"/>
<path d="M86.2412 19.7797L84.3729 19.8517L84.2032 19.3941L82.4025 19.267L82.3944 18.9323L80.4658 18.9026L80.7839 19.5975L81.6443 19.6992L81.5385 19.4746L82.318 19.9958L83.6103 20.2881L84.4706 20.3178L86.6358 20.0297L86.2412 19.7797Z" fill="#56B9E9"/>
<path d="M81.4792 18.1528L80.5975 18.0342C80.5975 18.0342 80.6233 17.7291 80.2802 17.5596C79.9363 17.3901 80.0171 17.5469 80.0171 17.5469L79.6821 17.3012L79.0635 17.1952L79.0128 16.7333L78.2076 16.6909L78.2245 16.4622L77.5978 16.3859L77.3304 16.1444L77.4156 15.8817L77.2584 15.6444L76.509 15.2884L75.8815 15.0385L75.4664 14.5596L74.9749 14.1316L74.3394 13.5088L72.7545 12.9537L71.2502 11.8435L70.64 11.585L69.996 11.2672L68.6273 10.5299L66.6146 9.40711L62.157 7.24182L60.8858 6.67827C60.1655 6.36471 60.0468 6.19945 60.0299 6.10623C59.3773 5.95369 59.1612 5.83928 58.8222 5.49606C58.4748 5.50877 57.7079 5.06386 57.496 4.86046C57.496 4.84775 56.1824 4.4664 56.0977 4.39013C56.0934 4.30962 52.6909 3.11047 52.2756 3.00877C51.979 2.98335 51.157 2.83081 51.0426 2.77572C50.9028 2.77572 50.3816 2.61046 50.1697 2.58928C49.4621 2.50877 48.7841 2.3986 48.0553 2.38589C47.5341 2.38165 47.2375 2.38589 46.7799 2.27148C46.6188 2.37318 45.551 2.1825 45.1739 2.46216C44.746 2.47911 43.7714 2.69521 43.5002 2.82657C42.9197 2.852 41.9282 3.48759 41.5935 3.65284C41.4281 3.73335 41.2502 3.8181 41.0723 3.90284C42.1358 4.27995 43.3477 4.72487 43.3477 4.77149C43.4324 4.84775 44.7418 5.22911 44.746 5.23758C44.9578 5.44522 45.7248 5.88589 46.0722 5.87317C46.4112 6.2164 46.6315 6.33081 47.2841 6.48335C47.3011 6.57657 47.4155 6.74182 48.1358 7.05538L49.407 7.61894L53.8646 9.78423L55.8773 10.9071L57.246 11.6443L57.8901 11.9622L58.5002 12.2206L59.0002 12.5893L59.9833 12.9707L62.1993 13.691L64.8731 14.7333L65.8688 15.0766L66.8731 15.3902L67.3476 15.3011L67.8688 15.4791L68.4451 15.9961L69.0341 15.8012L69.4324 15.8732L69.7502 16.2884L69.9579 16.5342L70.4621 16.6868L70.9621 16.7503L71.5553 16.6401L72.2502 16.6995L72.496 17.1147L73.4663 17.2842L74.1609 17.3393L74.8603 17.3943L75.3944 17.6444L75.886 18.1783L76.5846 18.3223L78.3942 18.5851L80.034 18.3859L81.1015 18.4367L81.4792 18.1528Z" fill="#56B9E9"/>
<path d="M66.7925 20.8052L68.7204 20.8349L68.7331 21.1653L70.5297 21.2967L70.7035 21.7585L72.5678 21.6823L72.9704 21.9323L70.8009 22.2204L69.9408 22.1907L68.6441 21.9026L67.8645 21.3729L67.9704 21.6018L67.1102 21.5043L66.7925 20.8052Z" fill="#006DB7"/>
<path d="M66.9956 20.0129C66.9956 20.0129 67.021 19.7078 66.6778 19.5383C66.3346 19.3645 66.4109 19.5256 66.4109 19.5256L66.0761 19.2798L65.4575 19.1739L65.4066 18.712L64.6058 18.6739L64.6269 18.445L63.9956 18.3688L63.7287 18.1315L63.8134 17.8687L63.6524 17.6315L62.9024 17.2713L62.2753 17.0214L61.86 16.551L61.3642 16.1188L60.7287 15.4959L59.1439 14.9408L57.6397 13.8349L57.0295 13.5764L56.3813 13.2586L55.0168 12.5214L52.9998 11.3942L48.5465 9.22897L47.2753 8.66539C46.5549 8.35182 46.4363 8.18659 46.4193 8.09335C45.7668 7.94082 45.5507 7.82641 45.2075 7.48319C44.8643 7.50014 44.0931 7.05522 43.8812 6.8476C43.8812 6.83488 42.5719 6.45353 42.4872 6.37726C42.4829 6.30099 39.0804 5.0976 38.6651 4.9959C38.3643 4.97472 37.5465 4.81793 37.4321 4.76709C37.2922 4.77132 36.771 4.60607 36.5592 4.58065C35.8516 4.50014 35.1736 4.38997 34.4448 4.37726C33.9236 4.36879 33.6312 4.37726 33.1693 4.26709C33.0041 4.36879 31.9406 4.17386 31.5592 4.45776C31.1355 4.47471 30.1609 4.69082 29.8897 4.82217C29.3092 4.84336 28.3176 5.48319 27.9786 5.64845C27.6863 5.79251 27.3516 5.93658 27.0761 6.10607C26.949 6.20777 25.0846 7.13149 24.9617 7.24591C24.9871 7.30946 23.1355 8.41118 22.9617 8.57215C22.8855 8.65694 22.3897 8.85604 22.2668 8.97469C22.1397 9.09761 21.644 9.54254 21.4745 9.62299C21.4024 9.77558 20.9321 9.94508 20.8558 10.1019C20.7457 10.2586 20.1821 10.5298 20.0931 10.6358C20.0761 10.6485 19.7668 10.9027 19.5168 11.1103C19.4151 11.2459 19.3092 11.3857 19.2075 11.5255C19.0846 11.5722 18.5888 11.8561 18.4617 11.9535C18.4744 12.2501 18.4957 12.7205 18.0295 12.6315L17.4829 12.9535C17.5507 12.9493 17.1948 13.4747 16.9024 13.8391C16.7286 14.051 15.9278 14.3434 15.771 14.5595C15.449 15.0044 15.038 15.4154 14.7202 15.8519V15.8857H14.7583C14.7626 15.945 15.0677 15.9366 15.11 16.0552C15.1736 16.229 14.9829 16.3815 14.9363 16.534L14.9744 16.5298V16.5637C15.2202 16.5552 15.4617 16.2967 15.6609 16.1908C15.8261 16.1315 15.9956 16.0595 16.1609 15.9959C16.4575 15.8222 16.7499 15.6484 17.0465 15.4705C19.2541 14.2756 21.4575 13.0764 23.6651 11.8772C24.7202 11.3095 25.5634 10.7798 26.7245 10.1357C27.0041 9.98321 28.0634 9.2671 28.8685 9.21626C29.8812 9.15271 31.0974 9.41117 31.4236 9.54672C31.7371 9.65693 32.5041 10.0468 32.8897 10.14C33.0084 10.1866 33.2287 10.3434 33.2795 10.3434C33.3177 10.3985 34.0465 10.5128 34.4321 10.6485C34.5634 10.7332 34.6905 10.8094 34.8219 10.8857C35.4533 11.0722 37.0295 11.4408 37.6016 11.6188C38.0846 11.7671 38.3727 12.0383 38.6143 12.0891C38.9448 12.3179 39.0168 12.1993 39.4194 12.3984C40.0295 12.462 40.4067 12.6781 40.4278 12.6993C40.6185 12.7756 40.7456 12.8561 40.9363 12.9323C41.0931 12.9535 41.3939 13.1865 41.5126 13.2459C41.6567 13.2756 42.6482 13.5764 42.7499 13.6273C42.9151 13.6103 43.6185 13.9154 43.7075 13.9917C43.9067 14.0849 44.1312 14.1357 44.3558 14.1823L46.3812 14.9747L48.5931 15.6951L51.2668 16.7374L52.2668 17.0806L53.2711 17.3899L53.7414 17.301L54.2625 17.4789L54.8388 17.9959L55.4278 17.801L55.8261 17.873L56.1439 18.2883L56.3473 18.5383L56.8515 18.6866L57.3516 18.7502L57.9448 18.64L58.6397 18.6951L58.8855 19.1146L59.8558 19.2798L60.555 19.3349L61.2541 19.39L61.788 19.6358L62.2753 20.1654L62.9745 20.3052L64.788 20.5722L66.4278 20.373L67.4956 20.4239L67.877 20.1357L66.9956 20.0129Z" fill="#006DB7"/>
<path d="M53.4449 33.7331C53.1314 33.8984 52.7118 34.0382 52.1483 34.0382C51.2331 34.0382 50.6737 33.7204 50.2331 33.3094C49.6271 32.7289 49.394 32.0806 49.394 31.3052C49.394 30.3602 49.7881 29.6738 50.2331 29.2586C50.7584 28.7628 51.4153 28.5679 52.1568 28.5679C52.5255 28.5679 52.9661 28.6314 53.4449 28.8899V30.0806C52.9661 29.5297 52.3687 29.4916 52.1779 29.4916C51.1271 29.4916 50.445 30.3602 50.445 31.3221C50.445 32.4831 51.339 33.1103 52.2203 33.1103C52.7034 33.1103 53.1398 32.8984 53.4449 32.5382V33.7331Z" fill="#006DB7"/>
<path d="M56.4324 33.9195H55.407V29.5678H54.229V28.6907H57.6104V29.5678H56.4324V33.9195Z" fill="#006DB7"/>
<path d="M58.644 28.6907V33.9238H59.6695V31.9873H60.3305C60.9322 31.9873 61.3644 31.8136 61.6567 31.5254C62.0593 31.1271 62.089 30.5594 62.089 30.3559C62.089 29.9788 61.9788 29.4703 61.5551 29.0932C61.1694 28.7542 60.7627 28.6949 60.1737 28.6949H58.644V28.6907ZM59.6695 29.5678H60.0212C60.2669 29.5678 60.5338 29.5805 60.7457 29.7331C60.8982 29.8433 61.0381 30.0382 61.0381 30.3263C61.0381 30.5551 60.9449 30.7882 60.7584 30.9365C60.5381 31.106 60.2839 31.106 60.089 31.106H59.6736V29.5678H59.6695Z" fill="#006DB7"/>
<path d="M66.466 33.9196H67.5634L65.3558 28.5764H64.5846L62.3135 33.9196H63.4237L63.8898 32.8221H66.0041L66.466 33.9196ZM64.2118 31.9916L64.966 30.1145L65.7075 31.9916H64.2118Z" fill="#006DB7"/>
<path d="M69.8941 31.161L68.3305 28.6907H69.5551L70.4745 30.3094L71.4407 28.6907H72.6694L71.055 31.161L72.8475 33.9195H71.6229L70.4745 32.0043L69.2669 33.9195H68.0381L69.8941 31.161Z" fill="#006DB7"/>
<path d="M76.5426 28.5723C74.8939 28.5723 73.7456 29.7163 73.7456 31.3095C73.7456 32.9028 74.8939 34.0426 76.5426 34.0426C78.1905 34.0426 79.3388 32.9028 79.3388 31.3095C79.3388 29.7163 78.1905 28.5723 76.5426 28.5723ZM76.5426 33.1146C75.5214 33.1146 74.7962 32.3646 74.7962 31.3095C74.7962 30.2502 75.5214 29.496 76.5426 29.496C77.5638 29.496 78.2882 30.2502 78.2882 31.3095C78.2882 32.3646 77.5638 33.1146 76.5426 33.1146Z" fill="#006DB7"/>
<path d="M81.6995 31.6441H82.0763C82.2968 31.6441 82.5554 31.6441 82.7758 31.7458C83.1101 31.8941 83.1608 32.178 83.1608 32.3432C83.1608 32.5466 83.0888 32.7967 82.8346 32.9449C82.6061 33.0763 82.3225 33.089 82.1359 33.089H81.6995V31.6441ZM80.6782 28.6907V33.9238H82.4363C82.8941 33.9238 83.3731 33.8475 83.7669 33.5001C84.1269 33.178 84.2121 32.75 84.2121 32.4407C84.2121 32.1653 84.1482 31.7585 83.8345 31.4577C83.7037 31.3348 83.4958 31.1864 83.1527 31.1314C83.2967 31.0509 83.7419 30.7754 83.7419 30.1017C83.7419 29.6611 83.5597 29.2543 83.2541 29.017C82.8309 28.6907 82.263 28.6907 81.975 28.6907H80.6782ZM81.6995 29.5212H81.9999C82.415 29.5212 82.7839 29.7034 82.7839 30.178C82.7839 30.8474 82.1483 30.8644 81.9919 30.8644H81.6995V29.5212Z" fill="#006DB7"/>
<path d="M88.097 28.5723C86.4491 28.5723 85.3008 29.7163 85.3008 31.3095C85.3008 32.9028 86.4447 34.0426 88.097 34.0426C89.7501 34.0426 90.894 32.9028 90.894 31.3095C90.894 29.7163 89.7457 28.5723 88.097 28.5723ZM88.097 33.1146C87.0765 33.1146 86.3514 32.3646 86.3514 31.3095C86.3514 30.2502 87.0765 29.496 88.097 29.496C89.1183 29.496 89.8434 30.2502 89.8434 31.3095C89.839 32.3646 89.1183 33.1146 88.097 33.1146Z" fill="#006DB7"/>
<path d="M93.8351 27.0171C94.0004 27.4578 94.4404 27.4747 94.5426 27.4747C94.644 27.4747 95.0848 27.4578 95.2501 27.0171L95.9576 27.301C95.7541 27.8306 95.267 28.1781 94.5426 28.1781C93.8182 28.1781 93.3347 27.8349 93.1268 27.301L93.8351 27.0171ZM93.2502 28.6908V32.2035L96.1442 28.5679H96.8517V33.9196H95.8261V30.3899L92.9321 34.0213H92.2246V28.6865H93.2502V28.6908Z" fill="#006DB7"/>
<path d="M101.165 28.6907V30.9619C101.165 31.6865 101.076 32.0806 100.975 32.3348C100.813 32.7288 100.521 33.0593 100.144 33.0424V35.0975H101.085V33.9195H104.305V35.0975H105.25V33.0424H104.699V28.6907H101.165ZM102.157 29.5678H103.682V33.0424H101.568C101.716 32.9025 101.868 32.7119 101.979 32.4237C102.076 32.1738 102.157 31.7712 102.157 30.9619V29.5678Z" fill="#006DB7"/>
<path d="M108.869 28.5723C107.221 28.5723 106.072 29.7163 106.072 31.3095C106.072 32.9028 107.221 34.0426 108.869 34.0426C110.522 34.0426 111.665 32.9028 111.665 31.3095C111.665 29.7163 110.517 28.5723 108.869 28.5723ZM108.869 33.1146C107.847 33.1146 107.123 32.3646 107.123 31.3095C107.123 30.2502 107.847 29.496 108.869 29.496C109.894 29.496 110.615 30.2502 110.615 31.3095C110.615 32.3646 109.89 33.1146 108.869 33.1146Z" fill="#006DB7"/>
<path d="M112.737 33.9197L113.708 28.5935H114.42L115.839 32.013L117.322 28.5935H118.034L118.911 33.9197H117.873L117.403 30.6952L115.966 33.9876H115.682L114.305 30.6952L113.775 33.9197H112.737Z" fill="#006DB7"/>
<path d="M140.822 0.635742H139.483V36.6357H140.822V0.635742Z" fill="#56B9E9"/>
<path d="M215.059 26.839C212.567 30.2585 208.538 32.4831 203.983 32.4831C196.42 32.4831 190.288 26.3517 190.288 18.7882C190.288 14.5636 192.203 10.7839 195.212 8.27544C195.288 8.21189 195.368 8.14834 195.445 8.08898C195.509 8.03814 195.572 7.9873 195.636 7.94071C197.343 6.63986 199.381 5.72037 201.644 5.3263C203.733 4.96189 205.818 5.08478 207.758 5.63138C207.775 5.63562 207.792 5.63986 207.805 5.6441C208.11 5.73308 208.415 5.83054 208.716 5.94071C208.767 5.95766 208.818 5.98308 208.868 6.00003C209.072 6.0763 209.271 6.16105 209.47 6.24579C209.601 6.30511 209.733 6.3602 209.864 6.42376C209.949 6.46613 210.033 6.5085 210.119 6.55087C210.445 6.71613 210.767 6.88986 211.08 7.08054C211.08 7.08054 211.085 7.08054 211.085 7.08478C212.288 7.81782 213.368 8.73308 214.292 9.78818L210.004 9.73734L211.898 11.7331L217.724 11.8051L217.796 5.97884L215.902 3.98308L215.856 7.88986C215.792 7.82206 215.733 7.75003 215.669 7.68224C215.602 7.61444 215.538 7.5424 215.47 7.4746C215.233 7.23732 214.991 7.00427 214.741 6.77969C214.674 6.72037 214.605 6.66528 214.538 6.60596C214.309 6.40681 214.076 6.21613 213.835 6.02969C213.792 5.99579 213.75 5.96189 213.703 5.92799C213.411 5.70766 213.114 5.50003 212.805 5.29664C212.771 5.27545 212.737 5.25427 212.708 5.23308C210.191 3.6102 207.199 2.66528 203.983 2.66528C198.801 2.66528 194.191 5.11444 191.237 8.91529C191.208 8.95342 191.174 8.99155 191.144 9.03394C191.05 9.15678 190.958 9.28396 190.865 9.41106C190.809 9.48732 190.754 9.56358 190.699 9.63984C190.623 9.75423 190.546 9.86444 190.47 9.97883C190.407 10.0721 190.347 10.1696 190.288 10.2627C190.22 10.3687 190.156 10.4789 190.089 10.589C190.026 10.6949 189.966 10.8009 189.907 10.9068C189.847 11.0128 189.788 11.1187 189.729 11.2288C189.669 11.3432 189.61 11.4534 189.555 11.5678C189.5 11.6738 189.449 11.7797 189.398 11.8857C189.343 12.0042 189.288 12.1229 189.237 12.2458C189.191 12.3517 189.139 12.4577 189.098 12.5636C189.038 12.7034 188.987 12.8433 188.932 12.9789C188.86 13.1695 188.788 13.3644 188.72 13.5594C188.678 13.6822 188.635 13.8009 188.597 13.9238C188.559 14.0466 188.525 14.1738 188.487 14.2966C188.453 14.411 188.419 14.5255 188.389 14.6399C188.356 14.767 188.326 14.8941 188.297 15.0212C188.267 15.1398 188.242 15.2543 188.216 15.3729C188.19 15.5001 188.165 15.6272 188.14 15.7585C188.118 15.8814 188.093 16.0043 188.076 16.1271C188.055 16.2543 188.034 16.3771 188.017 16.5042C188 16.6356 187.983 16.767 187.966 16.8983C187.953 17.017 187.936 17.1399 187.928 17.2585C187.915 17.4068 187.902 17.5593 187.894 17.7077C187.885 17.8136 187.877 17.9195 187.873 18.0254C187.864 18.2373 187.86 18.4449 187.856 18.6568C187.856 18.6992 187.852 18.7458 187.852 18.7882C187.852 18.7924 187.852 18.7966 187.852 18.8009C187.852 18.8051 187.852 18.8093 187.852 18.8179C187.868 27.7161 195.085 34.9195 203.983 34.9195C209.958 34.9195 215.173 31.6695 217.958 26.839H215.059Z" fill="#006DB7"/>
</g>
<defs>
<clipPath id="clip0_259_11">
<rect width="251.265" height="36" fill="white" transform="translate(0 0.635742)"/>
</clipPath>
</defs>
</svg>
