<svg width="252" height="36" viewBox="0 0 252 36" fill="none" xmlns="http://www.w3.org/2000/svg">
<path d="M172.818 34.4153C169.746 34.4153 166.818 33.2585 164.577 31.161L166.229 29.3898C168.022 31.0678 170.36 31.9873 172.818 31.9873C178.14 31.9873 182.466 27.661 182.466 22.339C182.466 17.75 179.204 13.767 174.712 12.8771C174.632 12.8602 174.555 12.8475 174.474 12.8347C174.364 12.8136 174.246 12.7966 174.131 12.7796L171.755 12.4576L178.301 5.72036H169.644V3.29663H184.03L176.653 10.8941C181.508 12.517 184.894 17.1144 184.894 22.3432C184.89 29.0043 179.475 34.4153 172.818 34.4153Z" fill="white"/>
<path d="M202.381 16.0296V19.1356H201.673V16.6144H200.61L200.589 17.2627C200.551 18.4831 200.376 19.1822 199.648 19.1822C199.542 19.1822 199.428 19.1652 199.292 19.1314L199.335 18.5254C199.376 18.5381 199.419 18.5424 199.462 18.5424C199.826 18.5424 199.919 18.0805 199.949 17.2881L199.991 16.0296H202.381Z" fill="white"/>
<path d="M205.609 18.5593V19.1355H203.207V16.0296H205.554V16.6059H203.923V17.2796H205.364V17.839H203.923V18.5593H205.609Z" fill="white"/>
<path d="M208.615 16.6187H207.623V19.1399H206.915V16.6187H205.928V16.034H208.618V16.6187H208.615Z" fill="white"/>
<path d="M218.941 18.1694V19.9491H217.882V19.1017H215.123V19.9491H214.064V18.1694H214.225C214.768 18.1567 214.861 17.3898 214.903 16.5338L214.954 15.1737H218.378V18.1652H218.941V18.1694ZM215.581 18.1694H217.238V16.1101H215.954L215.933 16.6144C215.911 17.2796 215.861 17.8771 215.581 18.1694Z" fill="white"/>
<path d="M223.453 17.4618H220.483C220.593 17.9491 221.008 18.2499 221.605 18.2499C222.021 18.2499 222.322 18.1271 222.593 17.8686L223.199 18.5254C222.835 18.9406 222.288 19.161 221.58 19.161C220.224 19.161 219.339 18.305 219.339 17.1398C219.339 15.9661 220.237 15.1186 221.432 15.1186C222.585 15.1186 223.474 15.8941 223.474 17.1568C223.474 17.2415 223.462 17.3686 223.453 17.4618ZM220.466 16.7966H222.403C222.322 16.3008 221.949 15.9788 221.441 15.9788C220.919 15.9788 220.547 16.2923 220.466 16.7966Z" fill="white"/>
<path d="M224.352 15.178H225.483V17.5127L227.394 15.178H228.437V19.1059H227.306V16.7711L225.398 19.1059H224.348V15.178H224.352ZM225.034 13.6228H225.78C225.788 13.9576 225.962 14.161 226.323 14.161C226.674 14.161 226.869 13.9576 226.869 13.6228H227.627C227.619 14.3813 227.182 14.7542 226.326 14.7542C225.47 14.7542 225.038 14.3813 225.034 13.6228Z" fill="white"/>
<path d="M229.217 17.1398C229.217 15.9576 230.128 15.1186 231.408 15.1186C232.233 15.1186 232.882 15.4745 233.166 16.1186L232.284 16.5932C232.073 16.2203 231.759 16.0508 231.403 16.0508C230.826 16.0508 230.373 16.4534 230.373 17.1398C230.373 17.8262 230.826 18.2288 231.403 18.2288C231.759 18.2288 232.073 18.0677 232.284 17.6906L233.166 18.1737C232.882 18.8008 232.229 19.1652 231.408 19.1652C230.128 19.1652 229.217 18.322 229.217 17.1398Z" fill="white"/>
<path d="M237.144 16.1101H235.813V19.1017H234.682V16.1101H233.352V15.1737H237.14V16.1101H237.144Z" fill="white"/>
<path d="M241.445 17.9873C241.445 18.6822 240.928 19.1059 239.847 19.1059H237.754V15.178H239.763C240.75 15.178 241.33 15.5509 241.33 16.1907C241.33 16.5848 241.119 16.8856 240.754 17.0509C241.211 17.2076 241.445 17.5212 241.445 17.9873ZM238.796 16.7924H239.657C240.051 16.7924 240.254 16.6483 240.254 16.3687C240.254 16.0848 240.051 15.9534 239.657 15.9534H238.796V16.7924ZM240.381 17.8983C240.381 17.5975 240.19 17.4619 239.775 17.4619H238.796V18.3305H239.754C240.17 18.3305 240.381 18.1907 240.381 17.8983Z" fill="white"/>
<path d="M246.229 15.178L244.453 19.3475C244.072 20.2967 243.534 20.5806 242.827 20.5806C242.424 20.5806 241.988 20.4492 241.733 20.2246L242.149 19.4153C242.322 19.5678 242.564 19.6653 242.793 19.6653C243.106 19.6653 243.28 19.5255 243.436 19.178L243.449 19.1399L241.75 15.1822H242.924L244.026 17.8475L245.136 15.1822H246.229V15.178Z" fill="white"/>
<path d="M246.78 15.178H247.911V17.5127L249.822 15.178H250.865V19.1059H249.733V16.7711L247.826 19.1059H246.775V15.178H246.78ZM247.458 13.6228H248.204C248.212 13.9576 248.386 14.161 248.746 14.161C249.098 14.161 249.292 13.9576 249.292 13.6228H250.051C250.043 14.3813 249.606 14.7542 248.75 14.7542C247.894 14.7542 247.466 14.3813 247.458 13.6228Z" fill="white"/>
<path d="M215.094 23.0974H214.623V24.0551H214.212V21.7881H214.623V22.7457H215.102L215.835 21.7881H216.276L215.415 22.877L216.335 24.0508H215.852L215.094 23.0974Z" fill="white"/>
<path d="M218.505 22.6863V24.055H218.115V23.7541C217.979 23.9575 217.724 24.0804 217.373 24.0804C216.86 24.0804 216.534 23.8049 216.534 23.4151C216.534 23.0507 216.767 22.7541 217.445 22.7541H218.093V22.6694C218.093 22.3219 217.894 22.1228 217.487 22.1228C217.22 22.1228 216.945 22.216 216.771 22.3643L216.602 22.055C216.835 21.8685 217.174 21.7626 217.539 21.7626C218.153 21.7668 218.505 22.0677 218.505 22.6863ZM218.093 23.3601V23.0423H217.462C217.055 23.0423 216.94 23.199 216.94 23.394C216.94 23.6227 217.127 23.7626 217.441 23.7626C217.746 23.7626 217.992 23.6227 218.093 23.3601Z" fill="white"/>
<path d="M221.301 23.0975H220.86V24.0551H220.449V23.0975H220.009L219.386 24.0551H218.898L219.678 22.8856L218.962 21.7924H219.399L220.009 22.75H220.454V21.7924H220.864V22.75H221.31L221.92 21.7924H222.36L221.644 22.8898L222.424 24.0551H221.936L221.301 23.0975Z" fill="white"/>
<path d="M225.174 23.6948V24.5804H224.788V24.0551H222.894V24.5804H222.504V23.6948H222.623C222.949 23.6779 223.004 23.1271 223.034 22.555L223.067 21.7881H224.826V23.6948H225.174ZM223.148 23.6948H224.419V22.1482H223.436L223.415 22.5847C223.394 23.0551 223.352 23.5169 223.148 23.6948Z" fill="white"/>
<path d="M227.606 23.2967C227.606 23.7882 227.263 24.0636 226.657 24.0551L225.704 24.0509V21.784H226.115V22.5509L226.725 22.5552C227.301 22.5636 227.606 22.8305 227.606 23.2967ZM227.191 23.2924C227.191 22.9916 227 22.8645 226.628 22.8602L226.115 22.8518V23.7416L226.628 23.7458C226.996 23.7501 227.191 23.5975 227.191 23.2924ZM227.945 21.7882H228.356V24.0551H227.945V21.7882Z" fill="white"/>
<path d="M229.152 21.7882H229.564V23.4364L230.953 21.7882H231.326V24.0551H230.915V22.4068L229.529 24.0551H229.152V21.7882ZM229.542 20.9026H229.822C229.826 21.1144 229.979 21.2543 230.212 21.2543C230.445 21.2543 230.602 21.1186 230.606 20.9026H230.89C230.881 21.2881 230.627 21.4916 230.216 21.4916C229.797 21.4957 229.546 21.2881 229.542 20.9026Z" fill="white"/>
<path d="M235.572 23.6948V24.5804H235.187V24.0551H233.292V24.5804H232.902V23.6948H233.021C233.348 23.6779 233.403 23.1271 233.432 22.555L233.466 21.7881H235.225V23.6948H235.572ZM233.542 23.6948H234.813V22.1482H233.83L233.81 22.5847C233.792 23.0551 233.75 23.5169 233.542 23.6948Z" fill="white"/>
<path d="M238.14 23.0594H236.302C236.352 23.4577 236.674 23.7204 237.124 23.7204C237.39 23.7204 237.611 23.6314 237.776 23.445L238.005 23.7119C237.802 23.9492 237.488 24.0806 237.111 24.0806C236.382 24.0806 235.895 23.5975 235.895 22.9238C235.895 22.2543 236.378 21.7713 237.03 21.7713C237.683 21.7713 238.149 22.2415 238.149 22.9365C238.149 22.9704 238.145 23.0212 238.14 23.0594ZM236.306 22.7627H237.759C237.717 22.3814 237.429 22.1144 237.035 22.1144C236.637 22.1144 236.348 22.3772 236.306 22.7627Z" fill="white"/>
<path d="M238.783 21.7881H239.195V22.7499H240.487V21.7881H240.898V24.0551H240.487V23.1059H239.195V24.0551H238.783V21.7881Z" fill="white"/>
<path d="M243.628 23.2967C243.628 23.7882 243.284 24.0636 242.678 24.0551L241.695 24.0509V21.784H242.106V22.5509L242.742 22.5552C243.318 22.5636 243.628 22.8305 243.628 23.2967ZM243.208 23.2924C243.208 22.9916 243.021 22.8645 242.645 22.8602L242.106 22.8518V23.7416L242.645 23.7458C243.017 23.7501 243.208 23.5975 243.208 23.2924Z" fill="white"/>
<path d="M30.479 17.0085H37.0256V23.0466L40.6485 17.0085H47.8265L42.2629 24.9618L47.9875 33.7796H40.462L37.0256 27.4067V33.7796H30.479V17.0085Z" fill="white"/>
<path d="M28.8263 33.2543C27.8009 33.8052 26.3984 34.284 24.4323 34.284C19.1018 34.284 15.3179 30.7628 15.3179 25.3941C15.3179 19.3094 20.178 16.5086 24.339 16.5086C25.6696 16.5086 27.517 16.8433 28.8263 17.7755V23.6441C27.8221 22.3772 26.3517 21.8688 25.2035 21.8688C22.7713 21.8688 21.606 23.5212 21.606 25.5594C21.606 27.6908 23.123 28.9111 25.1822 28.9111C26.6314 28.9111 27.8941 28.2416 28.8263 27.3772V33.2543Z" fill="white"/>
<path d="M6.54237 29.6483V27.1314H7.33475C7.96614 27.1314 8.97458 27.2501 8.97458 28.3772C8.97458 29.5509 7.94064 29.6483 7.33475 29.6483H6.54237ZM0 16.9026V33.6738H9.67371C14.2118 33.6738 15.1949 30.6993 15.1949 29.0001C15.1949 26.7246 13.6738 25.0721 11.5678 24.7119V24.6654C12.9237 24.2586 14.4195 23.0594 14.4195 21.1695C14.4195 19.873 13.928 16.9026 9.22878 16.9026H0ZM6.54237 23.2755V20.928H7.15255C8.2966 20.928 8.60172 21.5298 8.60172 22.1018C8.60172 22.6738 8.2966 23.2755 7.15255 23.2755H6.54237Z" fill="white"/>
<path d="M86.2412 19.144L84.3729 19.2161L84.2032 18.7584L82.4025 18.6313L82.3944 18.2966L80.4658 18.2669L80.7839 18.9618L81.6443 19.0635L81.5385 18.8389L82.318 19.3601L83.6103 19.6525L84.4706 19.6821L86.6358 19.394L86.2412 19.144Z" fill="white"/>
<path d="M81.4792 17.517L80.5975 17.3983C80.5975 17.3983 80.6233 17.0933 80.2802 16.9238C79.9363 16.7543 80.0171 16.9111 80.0171 16.9111L79.6821 16.6653L79.0635 16.5594L79.0128 16.0975L78.2076 16.0551L78.2245 15.8263L77.5978 15.7501L77.3304 15.5086L77.4156 15.2458L77.2584 15.0085L76.509 14.6526L75.8815 14.4026L75.4664 13.9238L74.9749 13.4958L74.3394 12.8729L72.7545 12.3179L71.2502 11.2077L70.64 10.9492L69.996 10.6314L68.6273 9.89411L66.6146 8.77128L62.157 6.60599L60.8858 6.04243C60.1655 5.72887 60.0468 5.56362 60.0299 5.47039C59.3773 5.31786 59.1612 5.20345 58.8222 4.86022C58.4748 4.87294 57.7079 4.42802 57.496 4.22463C57.496 4.21192 56.1824 3.83056 56.0977 3.75429C56.0934 3.67379 52.6909 2.47463 52.2756 2.37294C51.979 2.34752 51.157 2.19497 51.0426 2.13989C50.9028 2.13989 50.3816 1.97463 50.1697 1.95344C49.4621 1.87293 48.7841 1.76277 48.0553 1.75006C47.5341 1.74582 47.2375 1.75006 46.7799 1.63565C46.6188 1.73735 45.551 1.54666 45.1739 1.82633C44.746 1.84328 43.7714 2.05938 43.5002 2.19073C42.9197 2.21616 41.9282 2.85175 41.5935 3.01701C41.4281 3.09752 41.2502 3.18226 41.0723 3.267C42.1358 3.64412 43.3477 4.08904 43.3477 4.13565C43.4324 4.21192 44.7418 4.59328 44.746 4.60175C44.9578 4.80938 45.7248 5.25006 46.0722 5.23734C46.4112 5.58057 46.6315 5.69497 47.2841 5.84751C47.3011 5.94074 47.4155 6.10599 48.1358 6.41955L49.407 6.98311L53.8646 9.14839L55.8773 10.2712L57.246 11.0085L57.8901 11.3263L58.5002 11.5848L59.0002 11.9535L59.9833 12.3348L62.1993 13.0551L64.8731 14.0975L65.8688 14.4408L66.8731 14.7543L67.3476 14.6653L67.8688 14.8433L68.4451 15.3602L69.0341 15.1653L69.4324 15.2373L69.7502 15.6526L69.9579 15.8984L70.4621 16.0509L70.9621 16.1145L71.5553 16.0043L72.2502 16.0636L72.496 16.4789L73.4663 16.6484L74.1609 16.7035L74.8603 16.7585L75.3944 17.0085L75.886 17.5424L76.5846 17.6865L78.3942 17.9492L80.034 17.75L81.1015 17.8009L81.4792 17.517Z" fill="white"/>
<path d="M66.7925 20.1695L68.7204 20.1991L68.7331 20.5296L70.5297 20.661L70.7035 21.1228L72.5678 21.0465L72.9704 21.2966L70.8009 21.5847L69.9408 21.555L68.6441 21.2669L67.8645 20.7372L67.9704 20.9661L67.1102 20.8686L66.7925 20.1695Z" fill="white"/>
<path d="M66.9956 19.3771C66.9956 19.3771 67.021 19.072 66.6778 18.9025C66.3346 18.7287 66.4109 18.8898 66.4109 18.8898L66.0761 18.644L65.4575 18.5381L65.4066 18.0763L64.6058 18.0381L64.6269 17.8093L63.9956 17.733L63.7287 17.4957L63.8134 17.233L63.6524 16.9957L62.9024 16.6355L62.2753 16.3856L61.86 15.9152L61.3642 15.483L60.7287 14.8601L59.1439 14.3051L57.6397 13.1991L57.0295 12.9406L56.3813 12.6228L55.0168 11.8856L52.9998 10.7584L48.5465 8.5932L47.2753 8.02961C46.5549 7.71605 46.4363 7.55081 46.4193 7.45758C45.7668 7.30504 45.5507 7.19064 45.2075 6.84742C44.8643 6.86437 44.0931 6.41945 43.8812 6.21183C43.8812 6.19911 42.5719 5.81776 42.4872 5.74148C42.4829 5.66521 39.0804 4.46182 38.6651 4.36013C38.3643 4.33894 37.5465 4.18216 37.4321 4.13131C37.2922 4.13555 36.771 3.9703 36.5592 3.94488C35.8516 3.86437 35.1736 3.75419 34.4448 3.74148C33.9236 3.73301 33.6312 3.74148 33.1693 3.63132C33.0041 3.73301 31.9406 3.53809 31.5592 3.82199C31.1355 3.83894 30.1609 4.05504 29.8897 4.1864C29.3092 4.20759 28.3176 4.84742 27.9786 5.01267C27.6863 5.15674 27.3516 5.30081 27.0761 5.4703C26.949 5.572 25.0846 6.49572 24.9617 6.61013C24.9871 6.67369 23.1355 7.77541 22.9617 7.93638C22.8855 8.02116 22.3897 8.22027 22.2668 8.33892C22.1397 8.46183 21.644 8.90676 21.4745 8.98721C21.4024 9.13981 20.9321 9.3093 20.8558 9.46609C20.7457 9.62287 20.1821 9.89405 20.0931 9.99999C20.0761 10.0127 19.7668 10.2669 19.5168 10.4745C19.4151 10.6102 19.3092 10.75 19.2075 10.8898C19.0846 10.9364 18.5888 11.2203 18.4617 11.3177C18.4744 11.6143 18.4957 12.0847 18.0295 11.9957L17.4829 12.3177C17.5507 12.3135 17.1948 12.8389 16.9024 13.2033C16.7286 13.4152 15.9278 13.7076 15.771 13.9237C15.449 14.3686 15.038 14.7796 14.7202 15.2161V15.25H14.7583C14.7626 15.3093 15.0677 15.3008 15.11 15.4195C15.1736 15.5932 14.9829 15.7457 14.9363 15.8983L14.9744 15.894V15.9279C15.2202 15.9194 15.4617 15.661 15.6609 15.555C15.8261 15.4957 15.9956 15.4237 16.1609 15.3601C16.4575 15.1864 16.7499 15.0127 17.0465 14.8347C19.2541 13.6398 21.4575 12.4406 23.6651 11.2415C24.7202 10.6737 25.5634 10.1441 26.7245 9.49996C27.0041 9.34743 28.0634 8.63133 28.8685 8.58049C29.8812 8.51694 31.0974 8.7754 31.4236 8.91095C31.7371 9.02116 32.5041 9.41098 32.8897 9.50422C33.0084 9.5508 33.2287 9.70758 33.2795 9.70758C33.3177 9.76268 34.0465 9.87707 34.4321 10.0127C34.5634 10.0974 34.6905 10.1737 34.8219 10.2499C35.4533 10.4364 37.0295 10.8051 37.6016 10.983C38.0846 11.1313 38.3727 11.4025 38.6143 11.4534C38.9448 11.6821 39.0168 11.5635 39.4194 11.7627C40.0295 11.8262 40.4067 12.0424 40.4278 12.0635C40.6185 12.1398 40.7456 12.2203 40.9363 12.2966C41.0931 12.3177 41.3939 12.5508 41.5126 12.6101C41.6567 12.6398 42.6482 12.9407 42.7499 12.9915C42.9151 12.9745 43.6185 13.2796 43.7075 13.3559C43.9067 13.4491 44.1312 13.4999 44.3558 13.5466L46.3812 14.3389L48.5931 15.0593L51.2668 16.1016L52.2668 16.4449L53.2711 16.7542L53.7414 16.6652L54.2625 16.8431L54.8388 17.3602L55.4278 17.1652L55.8261 17.2372L56.1439 17.6525L56.3473 17.9025L56.8515 18.0508L57.3516 18.1144L57.9448 18.0042L58.6397 18.0593L58.8855 18.4788L59.8558 18.644L60.555 18.6991L61.2541 18.7542L61.788 19L62.2753 19.5296L62.9745 19.6694L64.788 19.9364L66.4278 19.7373L67.4956 19.7881L67.877 19.4999L66.9956 19.3771Z" fill="white"/>
<path d="M53.4449 33.0975C53.1314 33.2627 52.7118 33.4025 52.1483 33.4025C51.2331 33.4025 50.6737 33.0847 50.2331 32.6737C49.6271 32.0932 49.394 31.4449 49.394 30.6695C49.394 29.7245 49.7881 29.0381 50.2331 28.6229C50.7584 28.1271 51.4153 27.9322 52.1568 27.9322C52.5255 27.9322 52.9661 27.9957 53.4449 28.2542V29.4449C52.9661 28.8941 52.3687 28.8559 52.1779 28.8559C51.1271 28.8559 50.445 29.7246 50.445 30.6864C50.445 31.8475 51.339 32.4746 52.2203 32.4746C52.7034 32.4746 53.1398 32.2627 53.4449 31.9026V33.0975Z" fill="white"/>
<path d="M56.4324 33.2838H55.407V28.9322H54.229V28.055H57.6104V28.9322H56.4324V33.2838Z" fill="white"/>
<path d="M58.644 28.055V33.2881H59.6695V31.3517H60.3305C60.9322 31.3517 61.3644 31.1779 61.6567 30.8898C62.0593 30.4915 62.089 29.9237 62.089 29.7203C62.089 29.3432 61.9788 28.8347 61.5551 28.4576C61.1694 28.1186 60.7627 28.0593 60.1737 28.0593H58.644V28.055ZM59.6695 28.9322H60.0212C60.2669 28.9322 60.5338 28.9449 60.7457 29.0974C60.8982 29.2076 61.0381 29.4025 61.0381 29.6907C61.0381 29.9195 60.9449 30.1525 60.7584 30.3008C60.5381 30.4703 60.2839 30.4703 60.089 30.4703H59.6736V28.9322H59.6695Z" fill="white"/>
<path d="M66.466 33.2839H67.5634L65.3558 27.9406H64.5846L62.3135 33.2839H63.4237L63.8898 32.1864H66.0041L66.466 33.2839ZM64.2118 31.3559L64.966 29.4787L65.7075 31.3559H64.2118Z" fill="white"/>
<path d="M69.8941 30.5254L68.3305 28.055H69.5551L70.4745 29.6737L71.4407 28.055H72.6694L71.055 30.5254L72.8475 33.2838H71.6229L70.4745 31.3686L69.2669 33.2838H68.0381L69.8941 30.5254Z" fill="white"/>
<path d="M76.5426 27.9365C74.8939 27.9365 73.7456 29.0806 73.7456 30.6738C73.7456 32.267 74.8939 33.4068 76.5426 33.4068C78.1905 33.4068 79.3388 32.267 79.3388 30.6738C79.3388 29.0806 78.1905 27.9365 76.5426 27.9365ZM76.5426 32.4788C75.5214 32.4788 74.7962 31.7289 74.7962 30.6738C74.7962 29.6145 75.5214 28.8603 76.5426 28.8603C77.5638 28.8603 78.2882 29.6145 78.2882 30.6738C78.2882 31.7289 77.5638 32.4788 76.5426 32.4788Z" fill="white"/>
<path d="M81.6995 31.0084H82.0763C82.2968 31.0084 82.5554 31.0084 82.7758 31.1101C83.1101 31.2584 83.1608 31.5423 83.1608 31.7076C83.1608 31.911 83.0888 32.161 82.8346 32.3093C82.6061 32.4406 82.3225 32.4533 82.1359 32.4533H81.6995V31.0084ZM80.6782 28.055V33.2881H82.4363C82.8941 33.2881 83.3731 33.2118 83.7669 32.8644C84.1269 32.5423 84.2121 32.1144 84.2121 31.805C84.2121 31.5296 84.1482 31.1228 83.8345 30.822C83.7037 30.6991 83.4958 30.5508 83.1527 30.4957C83.2967 30.4152 83.7419 30.1398 83.7419 29.4661C83.7419 29.0254 83.5597 28.6186 83.2541 28.3813C82.8309 28.055 82.263 28.055 81.975 28.055H80.6782ZM81.6995 28.8855H81.9999C82.415 28.8855 82.7839 29.0677 82.7839 29.5423C82.7839 30.2118 82.1483 30.2288 81.9919 30.2288H81.6995V28.8855Z" fill="white"/>
<path d="M88.097 27.9365C86.4491 27.9365 85.3008 29.0806 85.3008 30.6738C85.3008 32.267 86.4447 33.4068 88.097 33.4068C89.7501 33.4068 90.894 32.267 90.894 30.6738C90.894 29.0806 89.7457 27.9365 88.097 27.9365ZM88.097 32.4788C87.0765 32.4788 86.3514 31.7289 86.3514 30.6738C86.3514 29.6145 87.0765 28.8603 88.097 28.8603C89.1183 28.8603 89.8434 29.6145 89.8434 30.6738C89.839 31.7289 89.1183 32.4788 88.097 32.4788Z" fill="white"/>
<path d="M93.8351 26.3814C94.0004 26.822 94.4404 26.8389 94.5426 26.8389C94.644 26.8389 95.0848 26.822 95.2501 26.3814L95.9576 26.6653C95.7541 27.1949 95.267 27.5423 94.5426 27.5423C93.8182 27.5423 93.3347 27.1992 93.1268 26.6653L93.8351 26.3814ZM93.2502 28.0551V31.5678L96.1442 27.9322H96.8517V33.2839H95.8261V29.7542L92.9321 33.3856H92.2246V28.0508H93.2502V28.0551Z" fill="white"/>
<path d="M101.165 28.055V30.3263C101.165 31.0508 101.076 31.4449 100.975 31.6991C100.813 32.0932 100.521 32.4237 100.144 32.4068V34.4618H101.085V33.2838H104.305V34.4618H105.25V32.4068H104.699V28.055H101.165ZM102.157 28.9322H103.682V32.4068H101.568C101.716 32.2669 101.868 32.0762 101.979 31.7881C102.076 31.5381 102.157 31.1355 102.157 30.3263V28.9322Z" fill="white"/>
<path d="M108.869 27.9365C107.221 27.9365 106.072 29.0806 106.072 30.6738C106.072 32.267 107.221 33.4068 108.869 33.4068C110.522 33.4068 111.665 32.267 111.665 30.6738C111.665 29.0806 110.517 27.9365 108.869 27.9365ZM108.869 32.4788C107.847 32.4788 107.123 31.7289 107.123 30.6738C107.123 29.6145 107.847 28.8603 108.869 28.8603C109.894 28.8603 110.615 29.6145 110.615 30.6738C110.615 31.7289 109.89 32.4788 108.869 32.4788Z" fill="white"/>
<path d="M112.737 33.2839L113.708 27.9577H114.42L115.839 31.3772L117.322 27.9577H118.034L118.911 33.2839H117.873L117.403 30.0593L115.966 33.3517H115.682L114.305 30.0593L113.775 33.2839H112.737Z" fill="white"/>
<path d="M140.822 0H139.483V36H140.822V0Z" fill="white"/>
<path d="M215.059 26.2033C212.567 29.6228 208.538 31.8473 203.983 31.8473C196.42 31.8473 190.288 25.716 190.288 18.1524C190.288 13.9279 192.203 10.1482 195.212 7.6397C195.288 7.57615 195.368 7.5126 195.445 7.45323C195.509 7.40239 195.572 7.35155 195.636 7.30497C197.343 6.00412 199.381 5.08463 201.644 4.69056C203.733 4.32615 205.818 4.44904 207.758 4.99564C207.775 4.99988 207.792 5.00412 207.805 5.00836C208.11 5.09734 208.415 5.19479 208.716 5.30497C208.767 5.32192 208.818 5.34734 208.868 5.36429C209.072 5.44056 209.271 5.5253 209.47 5.61005C209.601 5.66937 209.733 5.72446 209.864 5.78801C209.949 5.83039 210.033 5.87276 210.119 5.91513C210.445 6.08039 210.767 6.25412 211.08 6.44479C211.08 6.44479 211.085 6.44479 211.085 6.44903C212.288 7.18208 213.368 8.09734 214.292 9.15244L210.004 9.10159L211.898 11.0973L217.724 11.1694L217.796 5.3431L215.902 3.34734L215.856 7.25412C215.792 7.18632 215.733 7.11428 215.669 7.04649C215.602 6.9787 215.538 6.90666 215.47 6.83886C215.233 6.60158 214.991 6.36853 214.741 6.14394C214.674 6.08462 214.605 6.02954 214.538 5.97022C214.309 5.77106 214.076 5.58039 213.835 5.39395C213.792 5.36005 213.75 5.32615 213.703 5.29225C213.411 5.07192 213.114 4.86428 212.805 4.6609C212.771 4.63971 212.737 4.61853 212.708 4.59734C210.191 2.97446 207.199 2.02954 203.983 2.02954C198.801 2.02954 194.191 4.47869 191.237 8.27954C191.208 8.31768 191.174 8.35581 191.144 8.3982C191.05 8.52104 190.958 8.64821 190.865 8.77532C190.809 8.85158 190.754 8.92784 190.699 9.0041C190.623 9.11849 190.546 9.2287 190.47 9.34309C190.407 9.43632 190.347 9.53381 190.288 9.62697C190.22 9.73292 190.156 9.84312 190.089 9.95325C190.026 10.0592 189.966 10.1651 189.907 10.2711C189.847 10.377 189.788 10.483 189.729 10.5931C189.669 10.7075 189.61 10.8177 189.555 10.9321C189.5 11.038 189.449 11.144 189.398 11.2499C189.343 11.3685 189.288 11.4871 189.237 11.6101C189.191 11.716 189.139 11.8219 189.098 11.9278C189.038 12.0677 188.987 12.2075 188.932 12.3431C188.86 12.5338 188.788 12.7287 188.72 12.9236C188.678 13.0465 188.635 13.1651 188.597 13.288C188.559 13.4109 188.525 13.538 188.487 13.6609C188.453 13.7753 188.419 13.8897 188.389 14.0041C188.356 14.1312 188.326 14.2583 188.297 14.3854C188.267 14.5041 188.242 14.6186 188.216 14.7371C188.19 14.8643 188.165 14.9914 188.14 15.1228C188.118 15.2456 188.093 15.3685 188.076 15.4914C188.055 15.6186 188.034 15.7414 188.017 15.8685C188 15.9999 187.983 16.1312 187.966 16.2626C187.953 16.3812 187.936 16.5042 187.928 16.6227C187.915 16.7711 187.902 16.9236 187.894 17.0719C187.885 17.1779 187.877 17.2838 187.873 17.3897C187.864 17.6016 187.86 17.8092 187.856 18.0211C187.856 18.0635 187.852 18.11 187.852 18.1524C187.852 18.1566 187.852 18.1609 187.852 18.1651C187.852 18.1694 187.852 18.1736 187.852 18.1821C187.868 27.0804 195.085 34.2837 203.983 34.2837C209.958 34.2837 215.173 31.0337 217.958 26.2033H215.059Z" fill="white"/>
</svg>
