<svg width="36" height="37" viewBox="0 0 36 37" fill="none" xmlns="http://www.w3.org/2000/svg">
<g clip-path="url(#clip0_259_184)">
<path d="M23.525 0.841797H12.4741C2.38965 0.841797 -0.000976562 3.23242 -0.000976562 13.3169V24.3678C-0.000976562 34.4523 2.38965 36.8429 12.4741 36.8429H23.525C33.6095 36.8429 36.0001 34.4523 36.0001 24.3678V13.3169C36.0001 3.23242 33.5859 0.841797 23.525 0.841797ZM29.0623 26.5233H26.4489C25.4589 26.5233 25.154 25.738 23.3731 23.9335C21.8263 22.4339 21.1411 22.2348 20.7598 22.2348C20.2209 22.2348 20.0679 22.3867 20.0679 23.1258V25.4872C20.0679 26.1205 19.8688 26.5008 18.1925 26.5008C15.4205 26.5008 12.3448 24.8245 10.1881 21.7015C6.93577 17.125 6.0459 13.6972 6.0459 12.9884C6.0459 12.607 6.19777 12.2504 6.93015 12.2504H9.54915C10.2118 12.2504 10.4638 12.5553 10.7214 13.264C12.0163 17.0024 14.1729 20.2773 15.0628 20.2773C15.3913 20.2773 15.5431 20.1254 15.5431 19.2873V15.4263C15.443 13.6454 14.5059 13.4924 14.5059 12.8602C14.5059 12.5553 14.7579 12.2504 15.1618 12.2504H19.2804C19.8373 12.2504 20.042 12.5553 20.042 13.2112V18.4199C20.042 18.9824 20.294 19.1815 20.4459 19.1815C20.7744 19.1815 21.0556 18.9824 21.6643 18.3727C23.5453 16.2633 24.893 13.0109 24.893 13.0109C25.0685 12.6295 25.3734 12.2729 26.036 12.2729H28.655C29.4403 12.2729 29.6158 12.6768 29.4403 13.2393C29.1118 14.7625 25.9066 19.2862 25.9066 19.2862C25.631 19.7429 25.5253 19.942 25.9066 20.4517C26.1879 20.833 27.1025 21.6239 27.7111 22.3327C28.8305 23.6039 29.6911 24.6704 29.9206 25.4084C30.1783 26.1408 29.798 26.5222 29.0589 26.5222L29.0623 26.5233Z" fill="white"/>
</g>
<defs>
<clipPath id="clip0_259_184">
<rect width="36" height="36" fill="white" transform="translate(0 0.841797)"/>
</clipPath>
</defs>
</svg>
