<svg width="50" height="51" viewBox="0 0 50 51" fill="none" xmlns="http://www.w3.org/2000/svg">
<path d="M43.64 17.9334C43.619 16.3556 43.3236 14.7934 42.7671 13.3168C42.2845 12.0712 41.5473 10.9401 40.6028 9.99558C39.6583 9.05106 38.5272 8.31396 37.2816 7.83135C35.824 7.28418 34.2841 6.98831 32.7275 6.95635C30.7233 6.86677 30.0879 6.84177 25.0004 6.84177C19.9129 6.84177 19.2608 6.84177 17.2712 6.95635C15.7153 6.98855 14.1761 7.28441 12.7191 7.83135C11.4734 8.31362 10.3421 9.05061 9.39754 9.99517C8.45298 10.9397 7.71599 12.0711 7.23372 13.3168C6.68546 14.7733 6.39023 16.3128 6.36081 17.8688C6.27122 19.8751 6.24414 20.5105 6.24414 25.598C6.24414 30.6855 6.24414 31.3355 6.36081 33.3272C6.39206 34.8855 6.68581 36.423 7.23372 37.8834C7.7168 39.1288 8.45434 40.2596 9.39922 41.2038C10.3441 42.148 11.4755 42.8846 12.7212 43.3668C14.1742 43.9359 15.7137 44.253 17.2733 44.3043C19.2796 44.3938 19.915 44.4209 25.0025 44.4209C30.09 44.4209 30.7421 44.4209 32.7316 44.3043C34.2882 44.2736 35.8282 43.9784 37.2858 43.4313C38.531 42.9482 39.6619 42.2109 40.6063 41.2664C41.5508 40.322 42.2881 39.1911 42.7712 37.9459C43.3191 36.4876 43.6129 34.9501 43.6441 33.3897C43.7337 31.3855 43.7608 30.7501 43.7608 25.6605C43.7566 20.573 43.7566 19.9272 43.64 17.9334V17.9334ZM24.9879 35.2188C19.6671 35.2188 15.3566 30.9084 15.3566 25.5876C15.3566 20.2668 19.6671 15.9563 24.9879 15.9563C27.5423 15.9563 29.992 16.9711 31.7982 18.7773C33.6044 20.5835 34.6191 23.0332 34.6191 25.5876C34.6191 28.142 33.6044 30.5917 31.7982 32.3979C29.992 34.2041 27.5423 35.2188 24.9879 35.2188V35.2188ZM35.0025 17.8459C34.7075 17.8462 34.4153 17.7883 34.1427 17.6755C33.8701 17.5628 33.6224 17.3974 33.4138 17.1888C33.2052 16.9802 33.0398 16.7325 32.927 16.4599C32.8143 16.1873 32.7564 15.8951 32.7566 15.6001C32.7566 15.3053 32.8147 15.0134 32.9275 14.7411C33.0403 14.4687 33.2057 14.2212 33.4141 14.0128C33.6226 13.8043 33.87 13.639 34.1424 13.5262C34.4147 13.4134 34.7066 13.3553 35.0014 13.3553C35.2962 13.3553 35.5881 13.4134 35.8605 13.5262C36.1328 13.639 36.3803 13.8043 36.5887 14.0128C36.7972 14.2212 36.9625 14.4687 37.0754 14.7411C37.1882 15.0134 37.2462 15.3053 37.2462 15.6001C37.2462 16.8418 36.2421 17.8459 35.0025 17.8459Z" fill="white"/>
<path d="M24.9877 31.8439C28.4429 31.8439 31.2439 29.0428 31.2439 25.5876C31.2439 22.1324 28.4429 19.3314 24.9877 19.3314C21.5325 19.3314 18.7314 22.1324 18.7314 25.5876C18.7314 29.0428 21.5325 31.8439 24.9877 31.8439Z" fill="white"/>
</svg>
